<?xml version="1.0" standalone="no"?>
<!DOCTYPE svg PUBLIC "-//W3C//DTD SVG 20010904//EN"
 "http://www.w3.org/TR/2001/REC-SVG-20010904/DTD/svg10.dtd">
<svg version="1.0" xmlns="http://www.w3.org/2000/svg"
 width="1280.000000pt" height="640.000000pt" viewBox="0 0 1280.000000 640.000000"
 preserveAspectRatio="xMidYMid meet">
<metadata>
Created by potrace 1.15, written by Peter Selinger 2001-2017
</metadata>
<g transform="translate(0.000000,640.000000) scale(0.100000,-0.100000)"
fill="#000000" stroke="none">
<path d="M280 3919 c-41 -17 -67 -48 -91 -110 -19 -52 -20 -63 -9 -85 8 -13
18 -24 24 -23 50 6 41 -16 -11 -26 -63 -11 -88 -31 -142 -110 -61 -87 -61 -96
-5 -168 25 -32 44 -47 60 -47 30 0 30 -6 0 -75 -20 -44 -25 -74 -27 -149 -1
-51 2 -99 6 -105 4 -7 0 -42 -9 -79 -14 -63 -29 -419 -19 -449 3 -8 21 -13 44
-13 37 0 39 2 39 30 0 16 -5 61 -12 98 -11 63 -9 80 14 188 14 66 34 143 44
172 l19 52 74 -2 74 -3 61 -120 c34 -67 76 -145 95 -174 29 -45 35 -63 37
-124 5 -114 7 -119 57 -115 l42 3 -2 42 c-2 47 -68 248 -119 364 -23 53 -35
96 -38 140 -2 35 -16 95 -30 133 -14 37 -26 81 -26 97 0 25 4 29 26 29 19 0
47 20 100 71 40 40 76 81 80 92 7 22 -67 176 -98 204 -10 9 -41 21 -70 28 -34
8 -47 15 -37 19 12 6 14 17 8 64 -3 32 -14 72 -23 90 -27 52 -88 79 -136 61z
m-106 -375 c12 -31 6 -102 -10 -118 -39 -40 -52 -39 -74 5 -23 44 -23 44 29
102 28 31 46 34 55 11z m364 -31 c30 -46 30 -48 14 -75 -49 -83 -122 -114
-108 -47 11 58 48 169 56 169 4 0 21 -21 38 -47z"/>
<path d="M901 3908 c-27 -18 -41 -41 -66 -107 -26 -70 -37 -87 -59 -94 -20 -7
-36 -28 -65 -90 -55 -114 -65 -157 -57 -252 11 -126 12 -128 60 -122 48 5 90
-4 92 -21 1 -7 2 -28 3 -47 1 -24 6 -35 16 -35 14 0 95 -146 95 -171 0 -6 -20
-33 -44 -60 -32 -35 -50 -68 -67 -123 -19 -60 -29 -77 -50 -86 -16 -7 -34 -28
-44 -51 -10 -21 -24 -44 -32 -50 -10 -9 -10 -15 -2 -25 16 -19 36 -17 49 4 10
15 11 15 5 -3 -16 -46 -16 -52 7 -67 13 -8 38 -20 56 -26 29 -10 34 -9 47 12
14 20 14 27 0 59 -20 47 -19 90 2 130 20 39 91 137 100 137 5 0 -1 -187 -10
-310 -2 -23 2 -25 38 -25 l40 0 0 100 c0 78 6 122 28 199 15 54 27 124 28 155
0 31 12 93 28 141 22 70 30 86 49 88 14 2 22 10 22 23 0 19 1 19 16 5 24 -24
41 -19 41 12 1 39 20 107 44 155 18 34 20 51 15 106 -6 56 -5 63 8 52 33 -28
34 -62 5 -155 l-27 -89 4 -241 c7 -404 14 -540 27 -548 7 -4 24 -8 40 -8 32 0
33 5 13 110 -15 76 -12 127 18 340 l12 85 68 8 c37 5 73 6 80 4 18 -7 49 -115
42 -151 -3 -17 1 -74 8 -126 12 -83 12 -98 -1 -119 -16 -25 -12 -92 7 -121 9
-13 12 -13 24 3 14 18 14 18 21 -2 7 -22 62 -38 92 -27 14 6 13 10 -10 34 -44
47 -50 74 -48 259 1 125 -3 194 -15 253 -9 44 -13 92 -10 106 7 27 -10 218
-24 272 l-9 34 57 -54 c72 -69 95 -81 134 -73 27 6 30 5 24 -11 -11 -29 -28
-165 -22 -180 3 -8 14 -14 24 -14 14 0 30 -24 60 -88 23 -48 42 -93 42 -100 0
-7 -8 -25 -17 -39 -13 -19 -20 -59 -25 -138 -5 -60 -11 -141 -14 -179 -4 -51
-2 -71 7 -77 19 -11 147 -10 155 2 3 5 -4 34 -15 64 l-21 55 36 97 c19 54 39
132 45 173 20 153 59 260 94 260 18 0 45 -45 45 -75 0 -20 5 -25 24 -25 29 0
31 -8 46 -155 5 -55 19 -131 30 -170 26 -89 25 -124 -2 -180 -19 -40 -20 -47
-8 -55 28 -18 80 9 80 42 0 10 7 29 15 42 14 21 14 27 -2 62 -14 32 -17 70
-18 219 l0 180 46 3 c46 3 47 3 63 -40 10 -24 53 -107 97 -184 57 -102 79
-152 79 -177 0 -19 7 -48 15 -63 8 -16 15 -36 15 -45 0 -17 39 -39 70 -39 25
0 25 -2 -5 66 -14 31 -41 115 -60 186 -19 71 -48 155 -65 188 -22 43 -29 72
-29 108 1 27 -2 55 -6 62 -4 7 2 18 14 26 19 14 21 25 21 112 -1 53 -5 129
-10 167 -5 39 -14 113 -20 165 -14 121 -20 136 -63 144 l-35 7 5 79 c7 101 -8
130 -66 130 -52 0 -90 -47 -105 -130 -6 -34 -39 -80 -72 -98 -18 -10 -33 -68
-34 -127 -1 -64 -9 -81 -51 -99 -57 -25 -63 -17 -57 83 3 47 3 92 1 99 -3 7
-22 22 -44 32 -40 21 -42 25 -39 72 2 35 -29 145 -45 158 -7 6 -29 14 -49 17
-50 8 -92 -34 -101 -103 -11 -82 -19 -97 -66 -124 -43 -26 -100 -94 -158 -193
l-28 -48 -7 38 c-3 21 -6 66 -6 100 0 54 2 61 16 56 24 -9 7 18 -33 51 -20 17
-38 46 -49 79 -24 75 -51 125 -73 137 -70 37 -142 -29 -172 -156 -7 -33 -21
-58 -42 -76 -33 -30 -36 -50 -22 -146 10 -67 -11 -244 -35 -291 l-17 -35 -5
37 c-3 28 0 38 13 42 11 4 19 21 23 52 12 89 7 132 -24 198 -16 35 -30 68 -30
73 0 4 -11 23 -25 42 -14 19 -25 43 -26 54 0 12 -22 64 -47 116 -43 86 -50 95
-77 98 -19 2 -43 -6 -64 -20z m-95 -585 c-12 -29 -52 45 -60 108 -6 44 -3 66
10 95 l17 39 19 -113 c11 -62 17 -120 14 -129z m291 200 c16 -29 19 -47 14
-78 l-6 -39 -23 28 c-16 21 -22 42 -22 77 0 27 4 49 8 49 5 0 18 -17 29 -37z
m724 -55 c20 -66 20 -70 4 -88 -10 -11 -24 -20 -31 -20 -15 0 -94 88 -94 106
0 20 70 83 86 77 8 -3 24 -36 35 -75z m499 25 c-1 -16 -8 -39 -16 -53 l-15
-25 5 34 c3 18 6 42 6 52 0 11 5 19 10 19 6 0 10 -12 10 -27z m244 -75 c33
-152 35 -168 27 -190 -7 -20 -10 -16 -24 32 -18 62 -37 174 -37 214 0 51 16
25 34 -56z m-355 -70 c-1 -29 -4 -78 -8 -108 l-6 -55 -20 35 c-11 19 -32 62
-47 95 l-27 60 35 6 c19 3 37 9 41 12 3 4 12 7 20 7 9 0 13 -15 12 -52z m-610
-98 c0 -8 -7 -1 -14 15 -8 17 -14 37 -14 45 0 8 7 2 14 -15 8 -16 14 -37 14
-45z m1007 -117 c-11 -11 -17 4 -9 23 7 18 8 18 11 1 2 -10 1 -21 -2 -24z"/>
<path d="M3142 3919 c-28 -11 -36 -46 -29 -125 4 -40 2 -66 -5 -70 -5 -4 -42
-15 -80 -25 -39 -10 -75 -22 -80 -27 -18 -18 -88 -247 -88 -289 0 -54 36 -151
68 -183 24 -25 24 -25 17 -170 -3 -80 -15 -191 -26 -248 -10 -57 -19 -122 -19
-146 0 -27 -6 -48 -15 -56 -8 -7 -15 -20 -15 -30 0 -9 -16 -25 -35 -36 -19
-10 -35 -22 -35 -26 0 -12 78 -10 136 4 l53 12 20 66 c11 36 29 115 40 175 17
97 33 161 74 308 6 20 14 37 18 37 3 0 14 -56 23 -124 14 -103 15 -144 6 -237
-6 -61 -8 -138 -4 -170 7 -64 5 -63 132 -76 59 -6 66 4 22 31 l-31 18 4 171
c4 175 30 433 48 475 5 13 15 22 22 19 8 -2 18 24 29 82 16 76 17 102 6 228
-7 80 -16 144 -22 147 -6 2 -37 16 -69 30 l-58 26 6 -32 c4 -24 0 -43 -16 -68
l-22 -35 -8 28 c-4 16 -5 35 -2 43 3 9 -2 14 -17 14 -15 0 -20 -5 -17 -14 3
-8 1 -31 -5 -52 l-10 -37 -18 40 c-24 55 -32 95 -20 113 8 12 14 10 39 -14 29
-28 31 -28 55 -12 37 23 86 114 86 157 0 50 -36 82 -93 84 -24 1 -53 -2 -65
-6z"/>
<path d="M3605 3908 c-25 -20 -27 -25 -21 -71 7 -52 27 -91 60 -119 13 -11 17
-21 11 -25 -5 -5 -11 -19 -12 -33 0 -14 -6 -43 -11 -65 -6 -21 -14 -78 -18
-125 -5 -73 -4 -88 10 -99 13 -11 22 -11 42 -2 l25 11 -2 155 -3 154 25 20
c28 22 49 79 49 134 0 72 -95 113 -155 65z"/>
<path d="M4137 3919 c-22 -13 -51 -70 -68 -136 -7 -29 -17 -53 -21 -53 -5 0
-7 -4 -4 -9 11 -16 -5 -39 -35 -51 -35 -15 -36 -19 -44 -190 -3 -74 -10 -155
-15 -180 -5 -27 -5 -50 1 -56 5 -6 8 -33 7 -59 -3 -41 0 -50 24 -68 15 -11 31
-17 35 -14 4 4 -3 14 -15 23 -23 16 -29 34 -12 34 6 0 10 -7 10 -15 0 -8 5
-15 10 -15 9 0 8 19 -6 71 -3 9 2 22 11 29 8 7 15 27 16 44 1 30 1 30 9 6 5
-14 16 -88 24 -165 23 -193 19 -183 64 -187 l37 -3 -2 -121 c-2 -132 -14 -170
-84 -267 -16 -22 -29 -44 -29 -49 0 -9 45 -11 78 -2 28 8 63 72 73 134 8 49
61 209 69 209 8 0 108 -161 120 -194 6 -16 10 -45 10 -65 -3 -60 -2 -61 33
-58 32 3 32 3 35 65 3 57 0 67 -27 100 -16 21 -41 72 -56 113 -14 41 -35 90
-46 109 -13 21 -17 41 -13 55 4 11 6 46 5 76 -1 34 2 50 7 42 6 -9 20 -11 45
-7 29 6 36 12 41 38 13 68 4 138 -29 217 -15 35 -36 112 -47 170 -11 58 -21
115 -24 127 -4 22 -13 33 -47 56 -17 12 -17 15 7 57 26 45 35 121 18 147 -10
16 -98 53 -125 53 -12 0 -30 -5 -40 -11z m143 -504 c12 -43 25 -86 27 -95 3
-8 -13 13 -36 48 -40 61 -45 88 -24 125 7 12 9 8 33 -78z"/>
<path d="M4692 3923 c-21 -8 -42 -59 -42 -101 0 -49 -14 -62 -114 -104 -89
-37 -102 -54 -144 -181 -36 -109 -33 -120 41 -159 40 -22 61 -39 58 -48 -2 -8
-4 -175 -4 -370 0 -277 3 -362 13 -385 8 -16 14 -41 14 -55 2 -47 86 -55 86
-7 0 13 5 28 10 33 7 7 15 102 20 227 4 119 12 222 16 229 5 7 15 -15 26 -57
13 -53 18 -110 18 -237 0 -159 1 -168 21 -178 11 -7 27 -9 35 -6 8 3 29 -3 47
-14 33 -20 107 -28 107 -11 0 5 -15 19 -34 30 -54 34 -59 56 -47 242 17 270
23 462 16 491 -5 18 -17 30 -37 37 -21 7 -28 15 -24 26 3 9 -4 20 -20 28 l-25
13 53 68 c45 57 57 67 79 63 29 -4 30 1 33 142 l1 54 -62 23 -63 24 -1 -48
c-1 -26 -4 -60 -8 -77 -6 -28 -7 -27 -17 20 -14 59 -16 95 -5 95 13 0 68 93
74 124 9 54 -60 94 -121 69z m16 -227 c0 -17 -2 -42 -5 -56 -4 -22 -8 -17 -34
39 -39 85 -38 97 4 69 25 -16 34 -29 35 -52z"/>
<path d="M5093 3914 c-48 -24 -71 -68 -69 -133 1 -42 5 -56 19 -60 16 -6 16
-9 -3 -46 -11 -21 -20 -52 -20 -67 0 -15 -5 -38 -11 -52 -10 -20 -8 -34 5 -71
14 -35 15 -52 7 -77 -5 -18 -15 -62 -21 -98 -7 -36 -16 -71 -22 -77 -6 -8 -8
-31 -4 -58 7 -44 15 -51 54 -46 8 1 12 -12 12 -39 0 -34 4 -42 24 -50 37 -14
49 -73 43 -205 -5 -115 -43 -260 -76 -295 -9 -9 -22 -27 -29 -40 -14 -23 -14
-23 37 -18 33 3 58 12 69 24 24 26 46 97 38 122 -5 14 4 42 25 84 l32 63 18
-70 c24 -91 24 -120 -2 -162 -26 -42 -14 -56 35 -42 17 5 32 9 33 9 2 0 3 15
4 33 1 27 2 28 7 9 6 -20 9 -17 23 23 16 43 16 46 -3 70 -15 19 -20 46 -24
117 -3 51 -11 111 -19 133 -7 22 -16 60 -19 85 -6 40 -4 46 16 55 13 6 24 20
26 33 2 12 14 33 26 45 19 20 24 37 29 124 15 219 -13 413 -70 490 -12 17 -23
38 -23 45 0 8 -4 18 -9 24 -5 5 -14 26 -20 46 -13 40 -62 88 -89 88 -9 0 -32
-8 -49 -16z m196 -505 c6 -40 10 -74 7 -76 -11 -11 -36 60 -36 102 0 68 16 54
29 -26z"/>
<path d="M5541 3916 c-31 -17 -71 -84 -71 -119 0 -16 7 -35 15 -43 23 -24 18
-42 -14 -49 -16 -3 -35 -13 -42 -22 -16 -18 -34 -142 -53 -363 -14 -149 -14
-166 1 -182 14 -16 13 -28 -16 -140 -18 -71 -28 -125 -22 -131 5 -5 26 -11 48
-14 31 -4 43 -12 61 -42 12 -20 40 -65 62 -101 45 -72 46 -93 4 -143 -13 -16
-24 -35 -24 -43 0 -21 43 -17 75 8 l27 21 -16 -31 c-9 -17 -16 -33 -16 -37 0
-13 70 -3 91 13 19 16 22 27 21 83 -1 51 20 179 44 267 2 6 15 12 29 12 33 0
114 20 120 30 2 4 -11 56 -31 116 -34 106 -35 113 -33 254 2 136 -6 293 -17
367 -4 24 -13 37 -35 48 -22 12 -28 21 -24 35 3 10 -1 33 -10 50 -9 18 -13 40
-9 52 3 11 2 18 -2 15 -5 -3 -20 12 -33 32 -23 38 -67 71 -93 71 -7 -1 -24 -7
-37 -14z m203 -591 c6 -40 6 -39 -19 15 -35 74 -40 101 -24 147 l13 38 12 -80
c6 -44 14 -98 18 -120z m-297 43 c-3 -8 -6 -5 -6 6 -1 11 2 17 5 13 3 -3 4
-12 1 -19z m-12 -68 c-4 -23 -9 -39 -12 -36 -3 2 -2 23 2 46 4 23 9 39 12 36
3 -2 2 -23 -2 -46z m-38 -152 c-3 -7 -5 -2 -5 12 0 14 2 19 5 13 2 -7 2 -19 0
-25z m213 -317 c0 -10 3 -47 6 -82 5 -47 4 -61 -5 -54 -11 11 -61 131 -61 147
0 4 14 8 30 8 23 0 30 -5 30 -19z"/>
<path d="M5990 3916 c-29 -16 -64 -61 -75 -96 -4 -14 -16 -36 -26 -49 -17 -21
-19 -43 -19 -175 -1 -138 -22 -308 -56 -448 -5 -21 -1 -29 16 -38 30 -16 47 1
43 42 -3 27 -2 29 6 13 21 -44 41 -249 41 -424 l0 -179 29 -7 c24 -5 30 -12
33 -38 3 -28 7 -32 33 -32 29 0 30 1 42 70 8 48 9 123 4 240 -5 94 -6 212 -3
263 l4 93 24 -68 c13 -37 32 -131 44 -208 11 -77 27 -182 36 -232 l16 -93 44
0 c23 0 46 -5 49 -10 4 -6 11 -8 16 -5 5 4 19 -5 31 -19 21 -23 44 -30 93 -27
16 1 13 8 -22 44 -22 23 -43 53 -46 67 -2 14 -12 45 -20 70 -28 80 -86 343
-91 413 -5 60 -3 67 13 67 36 0 39 19 31 195 -12 235 -26 330 -58 385 -15 25
-27 47 -27 50 -1 3 -11 29 -24 57 -36 82 -113 116 -181 79z m220 -570 c6 -26
5 -35 -2 -28 -6 6 -12 32 -14 59 -3 48 1 41 16 -31z"/>
<path d="M6765 3918 c-36 -19 -55 -52 -55 -95 0 -23 -4 -45 -10 -48 -5 -3 -14
-23 -20 -44 -7 -28 -17 -41 -34 -45 -25 -6 -26 -8 -57 -159 -7 -33 -19 -62
-28 -66 -13 -7 -66 -17 -168 -32 -4 -1 6 -5 22 -8 l30 -7 -32 -20 c-18 -10
-33 -23 -33 -28 0 -12 134 0 193 18 50 15 52 15 38 -12 -31 -61 -51 -126 -56
-187 -4 -38 -10 -88 -15 -110 -7 -29 -5 -44 4 -55 10 -11 12 -29 6 -72 -5 -31
-11 -61 -14 -66 -3 -5 -10 -63 -16 -128 -10 -110 -13 -123 -46 -177 -42 -67
-40 -101 4 -91 15 4 30 9 35 11 16 9 58 105 61 141 3 34 37 132 88 257 11 28
23 63 25 78 5 23 10 28 32 25 l26 -3 3 -144 c2 -89 -1 -148 -8 -155 -5 -5 -10
-41 -10 -78 0 -64 2 -69 25 -80 21 -9 29 -9 41 4 13 13 14 24 4 74 -12 55 -11
63 15 129 15 39 32 108 39 155 l11 85 38 3 c43 4 42 3 52 132 9 110 9 105 2
173 -5 55 -4 59 15 54 13 -4 18 -1 15 7 -3 8 8 24 25 36 l31 23 -6 -49 c-19
-144 -20 -164 -8 -164 9 0 11 -9 6 -29 -5 -22 0 -35 18 -56 27 -32 51 -26 45
10 -4 21 -3 22 18 13 26 -12 39 -49 73 -211 25 -115 27 -152 13 -232 -6 -33
-12 -82 -14 -110 l-3 -50 38 -3 c36 -3 37 -2 37 30 1 30 2 31 12 13 7 -11 11
-34 9 -52 -2 -27 1 -33 23 -39 45 -11 59 1 51 46 -5 30 -3 41 7 45 12 5 13 18
6 73 -5 37 -13 83 -18 101 -8 29 -1 67 37 213 31 119 51 178 60 178 18 0 16
39 -7 140 -31 136 -21 127 15 -15 23 -89 31 -133 24 -142 -15 -17 21 -35 44
-22 14 9 16 22 11 102 -13 233 -39 435 -60 475 -7 14 -9 34 -4 50 9 35 -19 93
-73 149 -34 36 -48 43 -93 49 -44 5 -59 3 -87 -15 -50 -31 -69 -56 -89 -118
-16 -53 -16 -57 0 -69 11 -9 12 -13 5 -14 -7 0 -13 -5 -13 -11 0 -7 -7 -17
-15 -23 -8 -6 -19 -41 -25 -81 -5 -38 -16 -90 -23 -115 l-14 -44 -7 99 c-4 55
-12 107 -17 116 -5 10 -25 23 -44 29 -37 12 -40 19 -66 138 -20 94 -80 136
-144 100z m182 -470 c-3 -7 -5 -2 -5 12 0 14 2 19 5 13 2 -7 2 -19 0 -25z
m198 -18 c-9 -41 -17 -33 -9 9 4 17 9 30 11 27 3 -2 2 -19 -2 -36z"/>
<path d="M7673 3909 c-42 -27 -59 -84 -46 -155 11 -59 2 -87 -33 -103 -14 -6
-29 -22 -34 -35 -10 -28 -12 -255 -3 -400 5 -87 9 -103 29 -123 19 -19 25 -38
30 -104 7 -78 8 -82 36 -91 15 -5 28 -16 28 -23 0 -7 16 -54 36 -105 31 -81
34 -99 28 -146 -4 -37 -2 -59 6 -69 15 -18 46 -20 56 -3 11 17 5 130 -8 145
-5 7 -13 51 -16 98 l-5 85 28 0 c27 0 27 -2 22 -40 -3 -22 1 -70 9 -106 9 -44
10 -72 4 -84 -7 -12 -4 -40 7 -85 13 -52 22 -69 40 -78 39 -17 50 3 33 61 -18
58 -18 112 -1 267 7 66 15 159 18 207 4 68 9 90 24 104 10 9 19 27 19 38 1 16
5 12 16 -14 8 -19 22 -38 30 -43 8 -4 14 -23 14 -42 0 -27 4 -34 23 -37 18 -2
24 -13 35 -63 6 -33 17 -127 22 -208 6 -82 15 -158 21 -169 10 -18 7 -24 -20
-45 -42 -33 -40 -53 3 -53 56 0 138 23 143 39 2 9 9 24 14 33 14 26 11 46 -10
76 -28 39 -39 177 -26 320 6 63 9 72 27 72 15 0 29 -20 59 -85 44 -93 71 -214
69 -310 -1 -64 23 -130 50 -141 26 -10 160 -17 160 -8 0 4 -11 19 -23 33 -36
40 -85 240 -114 469 -5 35 -3 42 11 42 28 0 29 26 6 113 l-22 83 21 71 c41
138 40 151 -21 325 -20 56 -23 59 -77 78 -31 12 -67 29 -81 40 -23 17 -24 21
-12 52 28 79 3 132 -63 132 -41 0 -61 -16 -76 -61 -9 -28 -8 -40 2 -59 23 -43
2 -75 -70 -110 -73 -35 -73 -36 -103 -179 -15 -74 -19 -121 -15 -179 3 -49 2
-74 -4 -65 -5 8 -9 36 -9 63 0 28 -5 75 -10 105 -6 31 -14 90 -18 131 -7 75
-7 75 -42 86 l-35 12 -5 83 c-3 46 -10 93 -17 104 -38 67 -107 90 -160 54z
m-38 -549 c-9 -16 -17 -30 -19 -30 -1 0 1 21 5 48 4 26 8 54 9 62 1 8 6 0 11
-17 7 -25 6 -40 -6 -63z m291 -86 c9 -30 13 -58 11 -61 -3 -3 -11 15 -17 38
-6 24 -13 52 -16 62 -3 9 -3 17 0 17 3 0 13 -25 22 -56z m124 -130 c0 -8 -5
-12 -10 -9 -6 4 -8 11 -5 16 9 14 15 11 15 -7z"/>
<path d="M8764 3896 c-39 -39 -48 -100 -16 -110 9 -3 22 -14 29 -25 17 -26 -3
-50 -58 -70 -41 -15 -45 -20 -52 -61 -4 -25 -10 -73 -12 -107 -1 -34 -8 -77
-14 -95 -5 -18 -15 -64 -22 -102 -6 -38 -20 -92 -30 -120 -18 -50 -18 -51 2
-68 20 -17 20 -22 10 -118 -6 -56 -11 -188 -11 -294 0 -217 3 -226 73 -226 21
0 37 -5 37 -11 0 -9 33 -10 116 -7 103 5 117 8 130 27 10 13 26 21 45 21 16 0
29 4 29 9 0 21 -61 540 -69 586 -11 64 0 145 28 215 20 46 23 72 22 161 -2
142 -15 179 -69 197 -38 12 -78 52 -53 52 22 0 41 33 41 71 0 57 -22 95 -61
103 -51 10 -59 8 -95 -28z m175 -409 c10 -57 -2 -147 -20 -147 -10 0 -21 58
-22 110 0 41 18 108 27 99 2 -2 9 -30 15 -62z"/>
<path d="M9192 3914 c-18 -12 -22 -25 -22 -63 0 -34 5 -51 15 -55 8 -3 15 -17
15 -30 0 -16 9 -32 25 -42 25 -16 32 -47 16 -73 -6 -9 -13 0 -26 33 -14 37
-21 44 -31 35 -7 -6 -39 -22 -71 -34 -45 -19 -59 -30 -66 -52 -26 -89 -54
-453 -35 -453 4 0 11 -18 14 -40 8 -48 25 -64 58 -56 14 3 27 2 30 -2 3 -5 14
-91 25 -193 12 -101 27 -208 35 -237 13 -47 13 -54 0 -59 -10 -3 -14 -16 -12
-33 1 -15 -4 -35 -12 -45 -12 -14 -12 -18 1 -26 23 -14 61 -9 109 14 51 26 49
11 31 202 -7 66 -10 188 -9 270 3 141 4 147 16 107 7 -24 24 -110 38 -190 13
-81 34 -183 46 -227 11 -44 23 -95 26 -113 3 -25 11 -36 31 -44 14 -6 34 -14
43 -19 23 -12 95 -12 102 0 3 5 -1 14 -9 21 -9 7 -12 22 -9 39 3 16 -5 63 -20
112 -27 90 -60 255 -71 357 -7 62 -7 62 18 62 16 0 28 7 31 18 10 34 -2 319
-17 422 -21 139 -28 156 -69 165 -18 4 -52 17 -74 30 l-42 22 -12 -58 c-7 -33
-16 -59 -20 -59 -5 0 -11 19 -15 42 -6 34 -4 44 13 57 39 32 47 164 11 194
-26 21 -77 22 -107 1z m-63 -466 c0 -18 -6 -60 -14 -93 l-13 -60 -1 46 c-1 63
10 139 20 139 5 0 9 -15 8 -32z m288 -10 c-3 -8 -6 -5 -6 6 -1 11 2 17 5 13 3
-3 4 -12 1 -19z m73 -305 c0 -5 -5 -15 -10 -23 -8 -12 -10 -11 -10 8 0 12 5
22 10 22 6 0 10 -3 10 -7z"/>
<path d="M9696 3909 c-15 -11 -36 -39 -47 -61 -19 -37 -20 -46 -9 -105 13 -65
13 -65 -15 -87 -26 -21 -28 -28 -46 -196 -11 -96 -26 -204 -34 -240 -12 -57
-12 -68 1 -88 16 -25 52 -26 45 -1 -8 32 -3 119 8 119 7 0 6 -94 -2 -230 -2
-34 0 -35 42 -46 l45 -10 23 -102 c12 -57 29 -124 37 -151 17 -58 10 -137 -15
-170 -30 -37 -10 -61 51 -61 47 0 49 1 61 35 13 34 14 35 23 13 8 -20 10 -15
18 36 8 48 6 61 -7 76 -10 12 -18 49 -24 111 -6 68 -14 104 -29 129 -27 43
-27 50 -4 50 10 0 37 15 60 32 l42 33 -6 59 c-6 54 -5 60 16 76 19 15 25 31
31 91 5 41 13 75 19 77 21 7 4 327 -20 372 -5 10 -24 21 -41 25 -31 7 -38 15
-43 56 -2 13 -6 31 -8 39 -3 8 -11 34 -19 58 -23 77 -96 106 -153 61z m211
-481 c-2 -13 -4 -5 -4 17 -1 22 1 32 4 23 2 -10 2 -28 0 -40z"/>
<path d="M10190 3923 c-36 -13 -50 -36 -50 -83 0 -29 6 -52 14 -59 8 -7 17
-22 20 -35 3 -13 18 -31 32 -41 25 -16 28 -16 52 2 29 22 50 92 44 147 -7 56
-59 88 -112 69z"/>
<path d="M10783 3911 c-10 -11 -31 -57 -48 -102 -28 -76 -33 -82 -68 -94 -21
-7 -64 -34 -96 -59 -32 -25 -64 -46 -71 -48 -8 -2 -18 13 -25 37 -11 38 -15
41 -66 52 -30 7 -66 17 -81 22 -26 8 -28 7 -28 -15 0 -29 -26 -84 -40 -84 -10
0 -14 21 -11 48 1 6 -5 12 -14 12 -8 0 -15 -9 -15 -20 0 -32 -28 -23 -40 14
l-11 34 -67 -26 c-37 -14 -69 -27 -71 -28 -1 -2 -9 -58 -17 -126 -29 -265 -8
-447 52 -448 16 0 23 -52 34 -240 7 -140 31 -304 45 -319 2 -2 0 -12 -6 -22
-9 -17 -6 -19 34 -19 56 0 97 19 97 45 0 11 -8 49 -19 85 -26 92 -35 236 -21
350 16 125 22 134 48 71 20 -45 22 -69 24 -233 0 -101 -3 -208 -7 -239 -9 -67
-6 -70 81 -77 62 -5 76 2 54 24 -6 6 -6 22 0 44 6 19 10 73 10 120 0 47 5 176
12 288 9 155 14 202 25 202 7 0 13 8 13 18 0 9 9 44 20 76 11 33 20 83 20 111
l0 52 58 -28 c31 -15 65 -30 74 -33 14 -4 16 -17 11 -99 -6 -97 11 -252 29
-275 7 -8 7 -25 0 -55 -6 -23 -13 -129 -15 -235 l-4 -194 23 -10 c45 -21 51
-8 57 109 5 102 48 377 61 390 17 18 -9 -251 -40 -400 -18 -88 -15 -107 18
-107 38 0 45 12 53 80 4 36 23 117 43 180 19 63 36 138 38 166 2 28 14 84 27
125 13 41 30 104 37 142 14 66 10 97 -21 206 -3 8 6 14 22 16 15 2 49 15 77
29 l52 26 -6 -28 c-11 -55 12 -107 68 -152 28 -22 62 -43 75 -46 29 -8 29 -8
-4 -51 -24 -31 -25 -36 -11 -44 14 -8 14 -17 -7 -98 -12 -49 -26 -94 -30 -100
-4 -7 -10 -87 -14 -179 -6 -144 -10 -173 -29 -213 -12 -25 -22 -48 -22 -52 0
-4 18 -7 40 -7 37 0 41 3 47 30 6 33 19 39 26 13 3 -11 5 -8 6 9 0 15 6 38 12
51 8 17 8 30 1 44 -8 15 -6 35 8 81 11 34 22 92 26 129 7 72 23 109 86 209 31
50 42 61 59 57 20 -5 20 -11 16 -212 -3 -113 -10 -218 -16 -233 -6 -15 -9 -49
-6 -75 2 -27 4 -53 5 -59 0 -16 34 -23 55 -12 15 9 16 19 10 72 -4 39 -2 72 6
91 6 17 19 59 28 95 l17 65 42 -4 c54 -3 198 43 212 69 14 27 5 140 -14 178
-17 34 -43 52 -73 52 -16 0 -21 13 -30 88 -6 48 -23 122 -38 162 -15 41 -36
102 -46 135 -31 94 -52 129 -84 144 -16 8 -33 19 -37 26 -4 7 -19 10 -33 7
-19 -3 -25 0 -25 12 0 10 5 14 10 11 6 -3 10 0 10 7 0 9 3 9 10 -2 7 -10 10
10 10 65 -1 73 -3 83 -29 115 -26 31 -32 34 -57 25 -40 -14 -68 -69 -74 -143
-4 -50 -3 -61 8 -57 9 3 12 -1 10 -13 -2 -12 -15 -18 -43 -20 -55 -5 -95 -38
-129 -110 l-29 -61 -31 22 c-73 51 -161 129 -169 150 -4 12 -11 57 -14 100 -7
95 -26 123 -90 133 -34 5 -44 3 -60 -15z m-147 -346 c-4 -17 3 -43 24 -85 26
-51 28 -61 15 -66 -28 -11 -60 5 -110 56 -40 41 -47 53 -35 60 8 5 31 20 50
34 46 33 64 33 56 1z m374 -37 c27 -18 50 -37 50 -43 0 -5 -16 -20 -35 -33
-33 -21 -37 -21 -71 -7 -29 12 -35 19 -29 32 5 10 10 33 13 51 2 17 8 32 13
32 5 0 32 -15 59 -32z m277 -55 c9 -32 17 -82 16 -112 -1 -30 2 -62 8 -73 14
-25 -4 -23 -35 5 -31 28 -66 94 -66 126 0 29 38 111 51 111 4 0 16 -26 26 -57z
m407 -342 c3 -5 -4 -11 -16 -14 -25 -7 -33 -3 -23 12 8 13 32 14 39 2z"/>
<path d="M11943 3919 c-43 -13 -63 -45 -70 -114 -5 -45 -14 -68 -42 -104 -24
-32 -45 -78 -68 -156 -29 -97 -32 -119 -27 -185 6 -73 19 -108 54 -142 10 -9
21 -38 25 -64 4 -26 16 -71 27 -98 28 -72 62 -240 62 -308 0 -31 -7 -74 -16
-95 -54 -133 -56 -142 -42 -154 7 -6 26 -8 43 -4 27 6 31 11 36 53 12 85 25
126 38 113 15 -15 21 -124 8 -149 -9 -17 -8 -23 6 -31 10 -5 31 -7 46 -4 22 4
27 11 27 37 1 17 7 42 14 56 13 22 12 27 -9 52 -36 42 -45 149 -26 287 12 87
33 151 49 151 5 0 15 21 22 48 7 26 28 65 46 88 48 60 63 130 57 277 -6 159
-7 164 -48 184 -19 9 -35 23 -35 30 0 30 -61 201 -77 216 -25 21 -62 27 -100
16z m186 -436 c6 -31 11 -93 11 -137 l-1 -81 -39 98 c-22 53 -40 102 -40 108
0 12 42 68 51 68 3 1 11 -25 18 -56z m-302 -40 c-8 -87 -22 -142 -32 -120 -7
16 -3 58 12 145 9 56 25 36 20 -25z"/>
<path d="M12373 3904 c-28 -21 -33 -32 -33 -66 0 -32 6 -46 30 -68 42 -39 38
-57 -14 -80 -54 -23 -74 -51 -82 -116 -3 -27 -22 -110 -41 -184 l-36 -135 17
-86 c20 -104 20 -156 1 -189 -28 -49 -20 -66 54 -110 41 -25 74 -38 85 -34 24
9 21 79 -5 116 -19 26 -59 138 -59 163 1 20 90 -168 90 -189 0 -12 11 -66 26
-120 28 -110 26 -132 -16 -196 -32 -48 -31 -60 6 -60 21 0 24 -5 24 -35 0 -39
19 -46 54 -20 27 20 51 202 30 225 -9 11 -13 45 -13 115 0 55 -1 116 -2 135
-1 21 14 72 39 130 22 52 45 121 52 153 10 48 16 60 37 68 35 13 115 81 154
130 l32 40 -38 54 c-76 111 -109 141 -190 170 l-74 27 19 26 c22 27 26 82 10
113 -14 25 -62 49 -97 49 -15 0 -43 -12 -60 -26z m337 -412 c0 -19 -103 -122
-123 -122 -9 0 -21 9 -27 20 -13 24 -2 65 37 143 l24 48 44 -38 c24 -21 44
-44 45 -51z m-443 -259 c-3 -10 -5 -2 -5 17 0 19 2 27 5 18 2 -10 2 -26 0 -35z
m-8 -178 c1 -23 -2 -26 -9 -15 -5 8 -9 31 -9 50 0 29 2 31 9 15 5 -11 9 -33 9
-50z m33 -5 c3 -16 1 -30 -4 -30 -4 0 -8 14 -8 30 0 17 2 30 4 30 2 0 6 -13 8
-30z"/>
<path d="M3606 3722 c-3 -5 -33 -17 -67 -27 -72 -22 -84 -37 -98 -125 -35
-229 -37 -444 -4 -481 12 -14 12 -30 3 -99 -9 -66 -8 -91 3 -133 8 -29 18
-101 21 -162 4 -60 9 -120 12 -131 5 -17 -2 -24 -35 -38 -81 -32 -43 -43 102
-29 l67 6 0 39 c0 22 -5 48 -11 60 -6 11 -16 77 -21 146 -11 125 -11 128 16
208 42 126 49 130 65 39 17 -94 9 -281 -14 -325 -23 -44 -20 -131 6 -164 17
-21 29 -26 65 -26 44 0 57 13 33 37 -7 7 -4 21 11 46 18 31 21 56 26 209 3
110 11 198 22 241 14 61 19 69 43 74 23 4 32 16 53 69 22 55 26 79 26 172 0
129 -14 268 -30 303 -8 18 -33 35 -81 57 -38 16 -71 27 -73 23 -3 -4 -10 -63
-16 -131 -9 -95 -9 -139 0 -188 7 -34 10 -66 7 -69 -4 -3 -38 -8 -78 -11 l-71
-5 6 59 c9 72 25 358 21 362 -2 2 -5 -1 -9 -6z m242 -382 l0 -25 -8 25 c-4 14
-8 45 -8 70 l1 45 8 -45 c4 -25 7 -56 7 -70z m-11 -202 c-3 -8 -6 -5 -6 6 -1
11 2 17 5 13 3 -3 4 -12 1 -19z m-367 -2 c0 -3 -4 -8 -10 -11 -5 -3 -10 -1
-10 4 0 6 5 11 10 11 6 0 10 -2 10 -4z"/>
<path d="M4885 3409 c-4 -5 0 -18 9 -28 9 -10 13 -21 9 -24 -3 -4 -2 -7 4 -7
13 0 53 43 53 58 0 15 -66 16 -75 1z"/>
</g>
</svg>
