<?xml version="1.0" standalone="no"?>
<!DOCTYPE svg PUBLIC "-//W3C//DTD SVG 20010904//EN"
 "http://www.w3.org/TR/2001/REC-SVG-20010904/DTD/svg10.dtd">
<svg version="1.0" xmlns="http://www.w3.org/2000/svg"
 width="1280.000000pt" height="674.000000pt" viewBox="0 0 1280.000000 674.000000"
 preserveAspectRatio="xMidYMid meet">
<metadata>
Created by potrace 1.15, written by Peter Selinger 2001-2017
</metadata>
<g transform="translate(0.000000,674.000000) scale(0.100000,-0.100000)"
fill="#000000" stroke="none">
<path d="M11321 6718 c-68 -36 -95 -100 -70 -165 13 -35 25 -43 68 -43 20 0
31 -4 25 -8 -10 -10 -229 -92 -243 -92 -5 0 6 15 25 34 39 39 41 49 14 94 -47
76 -145 95 -218 42 -52 -37 -69 -86 -53 -148 11 -40 13 -42 62 -48 28 -4 47
-10 42 -14 -8 -8 -254 -70 -275 -70 -7 0 4 14 25 31 42 35 46 59 17 106 -51
85 -179 90 -246 10 -23 -27 -26 -38 -22 -89 2 -32 9 -63 14 -68 6 -6 29 -11
52 -13 23 -1 42 -4 42 -7 0 -3 -37 -14 -83 -24 -81 -19 -83 -20 -167 -101 -83
-80 -88 -84 -175 -109 -140 -41 -427 -132 -2586 -826 -1109 -356 -2031 -651
-2049 -655 -18 -4 -30 -3 -27 2 3 5 -19 24 -49 43 -41 27 -69 56 -113 122
l-57 86 32 -5 c29 -5 34 -2 40 21 8 35 -2 72 -27 97 -32 32 -60 16 -82 -45 -2
-5 -61 50 -132 121 -144 143 -223 197 -352 241 -71 24 -92 26 -228 26 -121 0
-165 -5 -228 -22 -161 -44 -313 -121 -429 -216 -21 -17 -98 -96 -169 -175 -72
-80 -152 -162 -178 -183 -175 -148 -405 -166 -726 -60 -49 17 -171 58 -270 92
-338 115 -560 156 -795 147 -211 -9 -392 -52 -578 -138 -255 -117 -528 -345
-708 -589 -367 -497 -472 -1052 -334 -1760 4 -25 7 -46 5 -48 -2 -2 -21 7 -43
19 -34 20 -42 21 -56 10 -30 -25 -10 -120 29 -135 16 -6 65 36 65 55 0 5 4 9
9 9 4 0 21 -44 36 -98 124 -437 360 -849 617 -1075 36 -31 65 -62 65 -69 0 -7
23 -50 51 -95 153 -248 346 -442 560 -565 233 -134 452 -185 835 -195 381 -10
682 49 961 189 183 92 299 182 498 386 129 132 165 182 418 578 100 157 256
318 350 362 109 50 139 54 560 62 359 6 402 9 475 29 106 28 192 71 255 128
63 56 80 88 80 148 0 98 -46 147 -221 240 -139 73 -210 138 -232 211 -31 104
30 273 135 378 79 79 162 128 384 227 203 91 260 127 326 203 60 69 79 77 463
214 571 204 1392 498 2355 842 525 188 1027 366 1114 396 88 31 226 82 307
115 165 66 181 68 322 39 52 -10 175 -26 273 -35 268 -24 294 -35 294 -124 0
-42 4 -53 30 -74 38 -32 81 -42 125 -27 70 23 83 78 35 150 -37 56 -37 72 -2
110 46 51 155 64 207 26 18 -13 18 -19 8 -67 -14 -65 -1 -93 54 -116 66 -27
153 9 153 64 0 30 -21 72 -49 97 -49 45 3 116 85 116 85 0 134 -35 134 -97 0
-15 9 -42 20 -60 40 -66 167 -66 199 1 12 26 11 34 -9 82 -33 81 -28 93 65
139 90 45 112 71 146 172 42 126 19 261 -74 444 -59 115 -157 266 -202 309
-35 34 -38 35 -116 35 -60 0 -82 -4 -89 -15 -6 -10 -9 5 -7 46 2 54 -1 65 -28
98 -43 54 -43 56 -50 111 -6 44 -13 55 -75 115 -72 68 -130 168 -130 223 0 19
-5 27 -18 27 -10 0 -81 -24 -159 -53 -139 -53 -140 -53 -125 -27 13 23 14 32
2 59 -32 78 -131 111 -209 69z m-841 -1257 c30 -13 60 -27 65 -33 7 -8 6 -9
-2 -4 -19 10 -181 -34 -519 -143 -2026 -652 -2640 -849 -2754 -886 -74 -24
-195 -62 -269 -85 -74 -23 -249 -82 -389 -131 -141 -49 -257 -87 -259 -85 -2
2 85 35 194 74 109 38 311 111 448 160 927 334 2723 974 2735 976 8 1 26 8 40
14 14 7 124 48 245 92 l220 80 95 -4 c68 -2 111 -10 150 -25z"/>
</g>
</svg>
